# xmcd
#
# Track frame offsets:
#       150
#       34207
#       63864
#       69271
#       75129
#       91251
#       115466
#       154161
#       183684
#       215592
#       251580
#       278196
#
# Disc length: 3879 seconds
#
# Revision: 0
# Processed by: cddbd v1.5.2PL0 Copyright (c) Steve Scherf et al.
# Submitted via: WaveLab 6.11
#
DISCID=a10f250c
DTITLE=Pjusk - Sval
DYEAR=2010
DGENRE=Ambient
TTITLE0=01 Pjusk - Sval - Valldal
TTITLE1=02 Pjusk - Sval - Sus
TTITLE2=03 Pjusk - Sval - Juv
TTITLE3=04 Pjusk - Sval - Byge
TTITLE4=05 Pjusk - Sval - Demring
TTITLE5=06 Pjusk - Sval - Skygge
TTITLE6=07 Pjusk - Sval - Dis
TTITLE7=08 Pjusk - Sval - Skumring
TTITLE8=09 Pjusk - Sval - Glimt
TTITLE9=10 Pjusk - Sval - Vidde
TTITLE10=11 Pjusk - Sval - Skodde
TTITLE11=12 Pjusk - Sval - Dunkel
EXTD=
EXTT0=
EXTT1=
EXTT2=
EXTT3=
EXTT4=
EXTT5=
EXTT6=
EXTT7=
EXTT8=
EXTT9=
EXTT10=
EXTT11=
PLAYORDER=
